# File created by Blade
# Date/Time:  Wed Sep 24 20:26:02 2014
# Frame Rate: 120.000 fps
#------------------------------------------------------
:FULLY-SPECIFIED
:DEGREES
904
root -7.160534 33.642115 -1.557003 170.323536 -65.430579 -111.882819
Spine -14.887397 13.988945 7.138327
Head -53.838769 30.042392 0.075853
LeftShoulder -10.154104 18.916490 12.301324
LeftArm 13.776017 46.675203 -68.862819
LeftForeArm 13.341877 0.000000 17.108893
LeftHand -29.823628 0.000000 -6.256359
LeftHandThumb1 -26.253704 0.000000 33.147579
RightShoulder -22.452924 12.163009 -24.566291
RightArm -24.815388 -35.649003 104.023999
RightForeArm -30.310459 -0.000000 14.754991
RightHand -5.550782 -0.000000 23.619756
RightHandThumb1 -24.326973 -0.000000 -32.862282
LeftUpLeg -48.221337 13.970941 12.573046
LeftLeg -8.963310 -0.000000 0.000000
LeftFoot -6.681235 29.773088 -2.372403
LeftToeBase 2.717849 -0.000000 -0.000000
RightUpLeg 0.095685 -3.986685 0.979878
RightLeg 17.455871 -0.000000 -0.000000
RightFoot 10.159843 16.090935 13.435486
RightToeBase -3.007861 -0.000000 0.000000
905
root -7.147819 33.645522 -1.617441 170.191942 -65.380733 -112.727309
Spine -14.449763 13.794022 7.261773
Head -53.071858 30.381791 0.439995
LeftShoulder -10.157444 18.699648 12.256156
LeftArm 14.306212 46.893215 -68.733607
LeftForeArm 13.101916 -0.000000 17.229312
LeftHand -30.314531 -0.000000 -5.713424
LeftHandThumb1 -26.253704 0.000000 33.147579
RightShoulder -22.410699 12.366810 -24.586248
RightArm -24.860838 -35.653747 104.137056
RightForeArm -30.136863 -0.000000 14.838685
RightHand -5.625275 -0.000000 23.392292
RightHandThumb1 -24.326973 -0.000000 -32.862282
LeftUpLeg -47.229425 13.852897 12.698109
LeftLeg -8.899794 -0.000000 0.000000
LeftFoot -6.706688 29.850985 -2.361405
LeftToeBase 2.593791 -0.000000 -0.000000
RightUpLeg -0.795435 -3.928621 1.567849
RightLeg 17.401639 -0.000000 -0.000000
RightFoot 8.485865 16.619677 14.027150
RightToeBase -4.090161 -0.000000 0.000000
906
root -7.124836 33.650439 -1.674070 170.184486 -65.273455 -113.623757
Spine -14.101080 13.665865 7.336694
Head -52.250694 30.650221 0.957913
LeftShoulder -10.065313 18.533739 12.289447
LeftArm 14.716262 46.875869 -68.774750
LeftForeArm 12.882049 -0.000000 17.421358
LeftHand -30.362646 -0.000000 -5.547774
LeftHandThumb1 -26.253704 0.000000 33.147579
RightShoulder -22.471949 12.272931 -24.507724
RightArm -24.491178 -35.850403 104.035827
RightForeArm -29.986555 -0.000000 14.836232
RightHand -5.475490 0.000000 23.208704
RightHandThumb1 -24.326973 -0.000000 -32.862282
LeftUpLeg -46.319392 13.771452 12.831029
LeftLeg -8.805699 -0.000000 0.000000
LeftFoot -6.806707 29.966082 -2.449945
LeftToeBase 2.431922 -0.000000 -0.000000
RightUpLeg -1.829610 -3.842408 2.160866
RightLeg 17.334637 -0.000000 -0.000000
RightFoot 6.748399 17.390561 13.934623
RightToeBase -4.714290 -0.000000 0.000000
907
root -7.099950 33.655529 -1.732739 170.230391 -65.129691 -114.521978
Spine -13.795349 13.479912 7.420529
Head -51.407174 30.902808 1.489956
LeftShoulder -10.055657 18.331793 12.322398
LeftArm 14.955953 46.839007 -68.937056
LeftForeArm 12.712093 0.000000 17.687891
LeftHand -30.345290 -0.000000 -5.402129
LeftHandThumb1 -26.253704 0.000000 33.147579
RightShoulder -22.367713 12.424529 -24.477300
RightArm -24.431219 -35.729621 103.981019
RightForeArm -29.445374 -0.000000 15.031879
RightHand -5.714589 -0.000000 22.895899
RightHandThumb1 -24.326973 -0.000000 -32.862282
LeftUpLeg -45.440645 13.730314 12.962252
LeftLeg -8.732843 -0.000000 0.000000
LeftFoot -6.840212 30.105962 -2.416412
LeftToeBase 2.194111 -0.000000 -0.000000
RightUpLeg -2.930909 -3.778829 2.777697
RightLeg 17.174210 -0.000000 -0.000000
RightFoot 4.982752 18.254568 13.541142
RightToeBase -5.336005 -0.000000 0.000000
908
root -7.073415 33.658444 -1.787345 170.364529 -64.947089 -115.542627
Spine -13.413649 13.328651 7.493826
Head -50.645992 31.064178 1.925416
LeftShoulder -10.029213 18.266895 12.276708
LeftArm 15.418171 46.707961 -68.921912
LeftForeArm 12.549199 -0.000000 17.917978
LeftHand -30.103993 -0.000000 -5.939847
LeftHandThumb1 -26.253704 0.000000 33.147579
RightShoulder -22.322610 12.435437 -24.380527
RightArm -24.119962 -35.693401 103.764240
RightForeArm -29.154330 -0.000000 15.263464
RightHand -5.758787 -0.000000 22.761061
RightHandThumb1 -24.326973 -0.000000 -32.862282
LeftUpLeg -44.510388 13.728186 13.026681
LeftLeg -8.712654 -0.000000 0.000000
LeftFoot -6.872702 30.256821 -2.350427
LeftToeBase 2.095453 -0.000000 -0.000000
RightUpLeg -4.029870 -3.794757 3.332737
RightLeg 16.931210 -0.000000 -0.000000
RightFoot 3.507990 19.016600 14.017731
RightToeBase -5.461666 -0.000000 0.000000
909
root -7.033110 33.663973 -1.854437 170.206357 -64.733329 -116.212049
Spine -13.028103 13.165881 7.757275
Head -49.850326 31.169634 2.268325
LeftShoulder -9.937312 18.158883 12.276501
LeftArm 15.801668 46.721495 -68.986778
LeftForeArm 12.210199 -0.000000 18.168435
LeftHand -29.983761 0.000000 -5.898173
LeftHandThumb1 -26.253704 0.000000 33.147579
RightShoulder -22.276013 12.440658 -24.381231
RightArm -23.787908 -35.613051 103.599515
RightForeArm -29.315697 -0.000000 15.531301
RightHand -5.752709 -0.000000 22.683374
RightHandThumb1 -24.326973 -0.000000 -32.862282
LeftUpLeg -43.642115 13.747897 13.262796
LeftLeg -8.651641 -0.000000 0.000000
LeftFoot -6.910852 30.447079 -2.171069
LeftToeBase 2.017707 -0.000000 -0.000000
RightUpLeg -5.142598 -4.065745 4.092047
RightLeg 16.512842 -0.000000 -0.000000
RightFoot 2.266821 19.517803 14.070784
RightToeBase -6.185504 -0.000000 0.000000
